<?xml version="1.0" encoding="UTF-8" standalone="no"?>
<!-- Created with Inkscape (http://www.inkscape.org/) -->

<svg
   xmlns:dc="http://purl.org/dc/elements/1.1/"
   xmlns:cc="http://creativecommons.org/ns#"
   xmlns:rdf="http://www.w3.org/1999/02/22-rdf-syntax-ns#"
   xmlns:svg="http://www.w3.org/2000/svg"
   xmlns="http://www.w3.org/2000/svg"
   xmlns:sodipodi="http://sodipodi.sourceforge.net/DTD/sodipodi-0.dtd"
   xmlns:inkscape="http://www.inkscape.org/namespaces/inkscape"
   width="1000"
   height="1000"
   viewBox="0 0 264.58334 264.58334"
   version="1.1"
   id="svg8"
   inkscape:version="0.92.3 (unknown)"
   sodipodi:docname="logo-plantilla.svg"
   inkscape:export-filename="/home/yormi/Diseño Grafico/InkScape/Render/logo-Template-2.png"
   inkscape:export-xdpi="42.333332"
   inkscape:export-ydpi="42.333332">
  <defs
     id="defs2" />
  <sodipodi:namedview
     id="base"
     pagecolor="#ffffff"
     bordercolor="#666666"
     borderopacity="1.0"
     inkscape:pageopacity="0.0"
     inkscape:pageshadow="2"
     inkscape:zoom="0.5"
     inkscape:cx="346.39378"
     inkscape:cy="558.06811"
     inkscape:document-units="mm"
     inkscape:current-layer="layer1"
     showgrid="false"
     inkscape:window-width="1366"
     inkscape:window-height="705"
     inkscape:window-x="0"
     inkscape:window-y="30"
     inkscape:window-maximized="1"
     units="px"
     showguides="true"
     inkscape:guide-bbox="true" />
  <metadata
     id="metadata5">
    <rdf:RDF>
      <cc:Work
         rdf:about="">
        <dc:format>image/svg+xml</dc:format>
        <dc:type
           rdf:resource="http://purl.org/dc/dcmitype/StillImage" />
        <dc:title />
      </cc:Work>
    </rdf:RDF>
  </metadata>
  <g
     inkscape:label="Fondo Border Dark"
     inkscape:groupmode="layer"
     id="layer1"
     transform="translate(0,-32.416673)"
     style="display:inline">
    <g
       style="stroke-width:1.40001726"
       id="g896"
       transform="matrix(0.18898577,0,0,0.18898577,123.20498,96.625499)" />
    <g
       style="stroke-width:1.40001726"
       id="g898"
       transform="matrix(0.18898577,0,0,0.18898577,123.20498,96.625499)" />
    <g
       style="stroke-width:1.40001726"
       id="g900"
       transform="matrix(0.18898577,0,0,0.18898577,123.20498,96.625499)" />
    <g
       style="stroke-width:1.40001726"
       id="g902"
       transform="matrix(0.18898577,0,0,0.18898577,123.20498,96.625499)" />
    <g
       style="stroke-width:1.40001726"
       id="g904"
       transform="matrix(0.18898577,0,0,0.18898577,123.20498,96.625499)" />
    <g
       style="stroke-width:1.40001726"
       id="g906"
       transform="matrix(0.18898577,0,0,0.18898577,123.20498,96.625499)" />
    <g
       style="stroke-width:1.40001726"
       id="g908"
       transform="matrix(0.18898577,0,0,0.18898577,123.20498,96.625499)" />
    <g
       style="stroke-width:1.40001726"
       id="g910"
       transform="matrix(0.18898577,0,0,0.18898577,123.20498,96.625499)" />
    <g
       style="stroke-width:1.40001726"
       id="g912"
       transform="matrix(0.18898577,0,0,0.18898577,123.20498,96.625499)" />
    <g
       style="stroke-width:1.40001726"
       id="g914"
       transform="matrix(0.18898577,0,0,0.18898577,123.20498,96.625499)" />
    <g
       style="stroke-width:1.40001726"
       id="g916"
       transform="matrix(0.18898577,0,0,0.18898577,123.20498,96.625499)" />
    <g
       style="stroke-width:1.40001726"
       id="g918"
       transform="matrix(0.18898577,0,0,0.18898577,123.20498,96.625499)" />
    <g
       style="stroke-width:1.40001726"
       id="g920"
       transform="matrix(0.18898577,0,0,0.18898577,123.20498,96.625499)" />
    <g
       style="stroke-width:1.40001726"
       id="g922"
       transform="matrix(0.18898577,0,0,0.18898577,123.20498,96.625499)" />
    <g
       style="stroke-width:1.40001726"
       id="g924"
       transform="matrix(0.18898577,0,0,0.18898577,123.20498,96.625499)" />
    <text
       xml:space="preserve"
       style="font-style:normal;font-variant:normal;font-weight:normal;font-stretch:normal;font-size:3.17499995px;line-height:1.25;font-family:'Sansita One';-inkscape-font-specification:'Sansita One';letter-spacing:0px;word-spacing:0px;fill:#000000;fill-opacity:1;stroke:none;stroke-width:0.26458332"
       x="40.390831"
       y="258.69116"
       id="text1303"><tspan
         sodipodi:role="line"
         id="tspan1301"
         x="40.390831"
         y="261.55991"
         style="stroke-width:0.26458332" /></text>
    <rect
       y="41.769756"
       x="9.3530836"
       height="245.87717"
       width="245.87717"
       id="rect1553-3-5"
       style="opacity:1;fill:#eceff1;fill-opacity:1;stroke:none;stroke-width:0;stroke-linecap:round;stroke-linejoin:round;stroke-miterlimit:4;stroke-dasharray:none;stroke-dashoffset:0;stroke-opacity:1"
       ry="122.93859"
       inkscape:export-filename="/home/yormi/Imágenes/InkScape/Render/logo-Template-3.png"
       inkscape:export-xdpi="84.666664"
       inkscape:export-ydpi="84.666664" />
    <rect
       style="opacity:1;fill:#f2f2f2;fill-opacity:1;stroke:#fdd835;stroke-width:6;stroke-linecap:round;stroke-linejoin:round;stroke-miterlimit:4;stroke-dasharray:144.00000503, 144.00000503;stroke-dashoffset:0;stroke-opacity:1"
       id="rect873-5-6"
       width="245.87718"
       height="245.87718"
       x="-90.724808"
       y="85.848854"
       ry="122.93859"
       inkscape:export-filename="/home/yormi/Diseño Grafico/InkScape/Render/logo-Template-1.png"
       inkscape:export-xdpi="84.666664"
       inkscape:export-ydpi="84.666664"
       transform="rotate(-30)" />
  </g>
  <g
     inkscape:groupmode="layer"
     id="layer3"
     inkscape:label="Fondo Border Yellow"
     style="display:none"
     sodipodi:insensitive="true">
    <rect
       y="9.3530912"
       x="9.3530912"
       height="245.87715"
       width="245.87715"
       id="rect1553-3"
       style="opacity:1;fill:#ececec;fill-opacity:1;stroke:none;stroke-width:0;stroke-linecap:round;stroke-linejoin:round;stroke-miterlimit:4;stroke-dasharray:none;stroke-dashoffset:0;stroke-opacity:1"
       ry="122.93858"
       inkscape:export-filename="/home/yormi/Diseño Grafico/InkScape/Render/logo-Template-2.png"
       inkscape:export-xdpi="50.38599"
       inkscape:export-ydpi="50.38599" />
    <rect
       style="opacity:1;fill:none;fill-opacity:1;stroke:#1a1a1a;stroke-width:6;stroke-linecap:round;stroke-linejoin:round;stroke-miterlimit:4;stroke-dasharray:144.000004, 144.000004;stroke-dashoffset:0;stroke-opacity:1"
       id="rect873-5"
       width="245.87717"
       height="245.87717"
       x="-74.516472"
       y="57.775196"
       ry="122.93858"
       inkscape:export-filename="/home/yormi/Diseño Grafico/InkScape/Render/logo-Template-2.png"
       inkscape:export-xdpi="50.38599"
       inkscape:export-ydpi="50.38599"
       transform="rotate(-30)" />
  </g>
  <g
     inkscape:groupmode="layer"
     id="layer2"
     inkscape:label="Logo 1"
     transform="translate(0,-35.416673)"
     style="display:inline"
     sodipodi:insensitive="true">
    <path
       style="fill:#ffeb3b;fill-opacity:1;stroke-width:0.23334783"
       inkscape:connector-curvature="0"
       d="m 186.09758,131.87727 c -2.28581,7.32748 -10.15183,11.45273 -17.48063,9.16562 L 120.0422,125.88624 c -7.32881,-2.28582 -11.45405,-10.15315 -9.16692,-17.48065 2.28713,-7.32749 10.15315,-11.452731 17.48063,-9.166927 l 48.57605,15.156647 c 7.32748,2.28713 11.45275,10.15315 9.16562,17.48196 z m 0,0"
       id="path1062" />
    <path
       style="fill:#f9a825;fill-opacity:1;stroke-width:0.23334783"
       inkscape:connector-curvature="0"
       d="m 110.87528,108.40559 c -2.28713,7.3275 1.83811,15.19483 9.16692,17.48065 l 29.30996,9.14587 c 3.89087,-11.54755 4.16343,-21.05419 3.11929,-28.26845 l -24.11554,-7.524997 c -7.32748,-2.285804 -15.19483,1.838137 -17.48063,9.166927 z m 0,0"
       id="path1064" />
    <path
       style="fill:#ffeb3b;fill-opacity:1;stroke-width:0.23334783"
       inkscape:connector-curvature="0"
       d="m 124.8166,225.80081 v -30.94533 c 0,-17.97966 -14.71028,-32.68863 -32.688632,-32.68863 -17.978362,0 -32.688643,14.70897 -32.688643,32.68863 v 30.94533 z m 0,0"
       id="path1066" />
    <path
       style="fill:#f9a825;fill-opacity:1;stroke-width:0.23334783"
       inkscape:connector-curvature="0"
       d="m 97.505411,208.31359 c 7.297189,-4.94951 8.068799,-10.81809 8.068799,-10.81809 v -32.4174 c -4.10682,-1.86974 -8.661321,-2.91125 -13.446242,-2.91125 -17.979679,0 -32.688643,14.70897 -32.688643,32.68863 v 30.94533 h 28.386946 c 0.173822,-7.04704 3.823732,-13.51603 9.67914,-17.48722 z m 0,0"
       id="path1068" />
    <path
       style="fill:#333333;fill-opacity:1;stroke-width:0.23334783"
       inkscape:connector-curvature="0"
       d="m 214.95196,168.22635 c -3.29046,1.69724 -7.33407,0.40686 -9.03263,-2.88358 l -3.56828,-6.918 c -1.81312,-3.51299 -6.14772,-4.89685 -9.66071,-3.08373 -3.51429,1.8131 -4.89816,6.1464 -3.08373,9.66069 l 3.56828,6.918 c 1.69856,3.28913 0.40687,7.33407 -2.88359,9.03131 -3.28915,1.69856 -7.33407,0.40685 -9.03131,-2.88359 l -3.5696,-6.91669 c -5.20364,-10.08337 -1.23244,-22.521 8.85092,-27.72464 10.08467,-5.20363 22.52101,-1.23374 27.72465,8.85092 l 3.56959,6.91668 c 1.69856,3.29046 0.40687,7.33407 -2.88359,9.03263 z m 0,0"
       id="path1070" />
    <path
       style="fill:#ffeb3b;fill-opacity:1;stroke-width:0.23334783"
       inkscape:connector-curvature="0"
       d="M 84.551613,201.24417 C 74.80401,197.01358 70.291646,185.57663 74.522234,175.83035 l 30.961106,-71.33143 c 4.2306,-9.747603 15.66753,-14.259964 25.41514,-10.029378 9.74629,4.230586 14.25996,15.667538 10.02937,25.413808 l -30.9611,71.33144 c -4.23059,9.7476 -15.667535,14.25996 -25.415137,10.02938 z m 0,0"
       id="path1072" />
    <path
       style="fill:#4d4d4d;fill-opacity:1;stroke-width:0.23334783"
       inkscape:connector-curvature="0"
       d="m 130.88663,111.92253 c 0,4.17793 -3.38658,7.56449 -7.56451,7.56449 -4.1779,0 -7.56449,-3.38656 -7.56449,-7.56449 0,-4.17792 3.38659,-7.56451 7.56449,-7.56451 4.17793,0 7.56451,3.38659 7.56451,7.56451 z m 0,0"
       id="path1074" />
    <path
       style="fill:#4d4d4d;fill-opacity:1;stroke-width:0.23334783"
       inkscape:connector-curvature="0"
       d="m 99.692458,183.79118 c 0,4.17792 -3.386584,7.56581 -7.56449,7.56581 -4.177925,0 -7.565815,-3.38789 -7.565815,-7.56581 0,-4.17793 3.38789,-7.56449 7.565815,-7.56449 4.177906,0 7.56449,3.38656 7.56449,7.56449 z m 0,0"
       id="path1076" />
    <path
       style="fill:#f9a825;fill-opacity:1;stroke-width:0.23334783"
       inkscape:connector-curvature="0"
       d="m 201.82303,130.76069 c 0,10.66008 -8.64286,19.30297 -19.30295,19.30297 -10.66008,0 -19.30296,-8.64289 -19.30296,-19.30297 0,-10.66139 8.64288,-19.30295 19.30296,-19.30295 10.66009,0 19.30295,8.64156 19.30295,19.30295 z m 0,0"
       id="path1078" />
    <path
       style="fill:#4d4d4d;fill-opacity:1;stroke-width:0.23334783"
       inkscape:connector-curvature="0"
       d="m 190.08457,130.76069 c 0,4.17792 -3.38656,7.56451 -7.56449,7.56451 -4.17792,0 -7.56451,-3.38659 -7.56451,-7.56451 0,-4.17791 3.38659,-7.56449 7.56451,-7.56449 4.17793,0 7.56449,3.38658 7.56449,7.56449 z m 0,0"
       id="path1080" />
    <path
       style="fill:#333333;stroke-width:0.23334783"
       inkscape:connector-curvature="0"
       d="M 126.40191,242.53487 H 57.854006 c -6.520347,0 -11.854338,-5.334 -11.854338,-11.85302 0,-6.52034 5.333991,-11.85434 11.854338,-11.85434 h 68.547904 c 6.51904,0 11.85302,5.334 11.85302,11.85434 0,6.51902 -5.33398,11.85302 -11.85302,11.85302 z m 0,0"
       id="path1082" />
    <path
       style="fill:#1a1a1a;stroke-width:0.23334783"
       inkscape:connector-curvature="0"
       d="m 74.661805,230.68185 c 0,-6.52034 5.333993,-11.85434 11.854345,-11.85434 H 57.854006 c -6.520347,0 -11.854338,5.334 -11.854338,11.85434 0,6.51902 5.333991,11.85433 11.854338,11.85433 H 86.51615 c -6.519035,-0.001 -11.854345,-5.33531 -11.854345,-11.85433 z m 0,0"
       id="path1084" />
  </g>
  <g
     inkscape:groupmode="layer"
     id="layer4"
     inkscape:label="Logo 2"
     style="display:none"
     sodipodi:insensitive="true">
    <g
       id="g1285"
       transform="matrix(1.8393963,0,0,1.8393963,-207.47492,-198.76301)"
       style="display:inline;stroke-width:0.47947493"
       inkscape:export-filename="/home/yormi/Imágenes/InkScape/Render/logo-Template-3.png"
       inkscape:export-xdpi="84.666664"
       inkscape:export-ydpi="84.666664">
      <path
         id="path1108"
         d="m 213.11018,161.07225 c -1.2069,3.86697 -5.35806,6.04384 -9.22503,4.83765 l -25.63423,-7.9988 c -3.86697,-1.20691 -6.04384,-5.35806 -4.83765,-9.22503 1.20691,-3.86697 5.35806,-6.04384 9.22575,-4.83765 l 25.63423,7.9988 c 3.86697,1.20619 6.04384,5.35806 4.83693,9.22503 z m 0,0"
         inkscape:connector-curvature="0"
         style="fill:#fbc600;fill-opacity:1;stroke-width:0.12686107" />
      <path
         id="path1110"
         d="m 173.41327,148.68607 c -1.20619,3.86697 0.97068,8.01812 4.83765,9.22503 l 15.46715,4.82619 c 2.05447,-6.09394 2.19763,-11.11055 1.64715,-14.9181 l -12.7262,-3.97077 c -3.86769,-1.20619 -8.01884,0.96996 -9.22575,4.83765 z m 0,0"
         inkscape:connector-curvature="0"
         style="fill:#fb9300;fill-opacity:1;stroke-width:0.12686107" />
      <path
         id="path1112"
         d="m 180.77067,210.63773 v -16.33046 c 0,-9.48774 -7.76257,-17.25031 -17.25031,-17.25031 -9.48774,0 -17.25031,7.76257 -17.25031,17.25031 v 16.33046 z m 0,0"
         inkscape:connector-curvature="0"
         style="fill:#fbc600;fill-opacity:1;stroke-width:0.12686107" />
      <path
         id="path1114"
         d="m 166.35795,201.40912 c 3.85122,-2.6121 4.25782,-5.70882 4.25782,-5.70882 v -17.10715 c -2.16685,-0.98643 -4.56993,-1.53619 -7.09541,-1.53619 -9.48774,0 -17.25103,7.76257 -17.25103,17.25031 v 16.33046 h 14.9811 c 0.0916,-3.71879 2.01796,-7.13263 5.10752,-9.22861 z m 0,0"
         inkscape:connector-curvature="0"
         style="fill:#fb9300;fill-opacity:1;stroke-width:0.12686107" />
      <path
         id="path1116"
         d="m 228.33753,180.25461 c -1.73663,0.89624 -3.87055,0.21476 -4.76678,-1.52187 l -1.88409,-3.65007 c -0.95636,-1.85474 -3.24347,-2.58418 -5.0975,-1.62782 -1.85402,0.95708 -2.58489,3.24347 -1.62782,5.09821 l 1.8841,3.65007 c 0.89551,1.73663 0.21475,3.87055 -1.52188,4.76678 -1.73663,0.89623 -3.87055,0.21475 -4.76678,-1.52187 l -1.88337,-3.65007 c -2.74597,-5.32156 -0.6507,-11.8851 4.67085,-14.63106 5.32156,-2.74596 11.88509,-0.6507 14.63106,4.67086 l 1.88337,3.65007 c 0.89623,1.73662 0.21475,3.87054 -1.52116,4.76677 z m 0,0"
         inkscape:connector-curvature="0"
         style="fill:#4d4d4d;fill-opacity:1;stroke-width:0.12686107" />
      <path
         id="path1118"
         d="m 159.52239,197.67888 c -5.14402,-2.23271 -7.52562,-8.26795 -5.29292,-13.41198 l 16.33905,-37.64245 c 2.23271,-5.14403 8.26795,-7.52563 13.41127,-5.29292 5.14402,2.2327 7.52562,8.26795 5.29292,13.41198 l -16.33834,37.64245 c -2.2327,5.14402 -8.26795,7.52562 -13.41198,5.29292 z m 0,0"
         inkscape:connector-curvature="0"
         style="fill:#fbd000;fill-opacity:1;stroke-width:0.12686107" />
      <path
         id="path1120"
         d="m 183.97406,150.54224 c 0,2.20479 -1.78674,3.99153 -3.99152,3.99153 -2.20479,0 -3.99225,-1.78674 -3.99225,-3.99153 0,-2.20479 1.78746,-3.99224 3.99225,-3.99224 2.20478,0 3.99152,1.78745 3.99152,3.99224 z m 0,0"
         inkscape:connector-curvature="0"
         style="fill:#acabb1;stroke-width:0.12686107" />
      <path
         id="path1122"
         d="m 167.51189,188.46888 c 0,2.20479 -1.78674,3.99224 -3.99153,3.99224 -2.20479,0 -3.99224,-1.78745 -3.99224,-3.99224 0,-2.20479 1.78745,-3.99224 3.99224,-3.99224 2.20479,0 3.99153,1.78745 3.99153,3.99224 z m 0,0"
         inkscape:connector-curvature="0"
         style="fill:#acabb1;stroke-width:0.12686107" />
      <path
         id="path1124"
         d="m 221.4082,160.48311 c 0,5.62579 -4.56062,10.18641 -10.1864,10.18641 -5.62579,0 -10.18641,-4.56062 -10.18641,-10.18641 0,-5.62579 4.56062,-10.1864 10.18641,-10.1864 5.62578,0 10.1864,4.56061 10.1864,10.1864 z m 0,0"
         inkscape:connector-curvature="0"
         style="fill:#fbbb00;fill-opacity:1;stroke-width:0.12686107" />
      <path
         id="path1126"
         d="m 215.21404,160.48311 c 0,2.20479 -1.78746,3.99224 -3.99224,3.99224 -2.20479,0 -3.99153,-1.78745 -3.99153,-3.99224 0,-2.20479 1.78674,-3.99224 3.99153,-3.99224 2.20478,0 3.99224,1.78745 3.99224,3.99224 z m 0,0"
         inkscape:connector-curvature="0"
         style="fill:#acabb1;stroke-width:0.12686107" />
      <path
         id="path1128"
         d="m 181.60749,219.46905 h -36.17426 c -3.44033,0 -6.25573,-2.81468 -6.25573,-6.25573 0,-3.44032 2.81469,-6.25572 6.25573,-6.25572 h 36.17426 c 3.44033,0 6.25501,2.81468 6.25501,6.25572 0,3.44105 -2.81468,6.25573 -6.25501,6.25573 z m 0,0"
         inkscape:connector-curvature="0"
         style="fill:#4d4d4d;fill-opacity:1;stroke-width:0.12686107" />
      <path
         id="path1130"
         d="m 154.3032,213.21332 c 0,-3.44032 2.81469,-6.25572 6.25573,-6.25572 h -15.1257 c -3.44033,0 -6.25573,2.8154 -6.25573,6.25572 0,3.44033 2.81469,6.25573 6.25573,6.25573 h 15.1257 c -3.44033,0 -6.25573,-2.81468 -6.25573,-6.25573 z m 0,0"
         inkscape:connector-curvature="0"
         style="fill:#333333;fill-opacity:1;stroke-width:0.12686107" />
      <path
         id="path1132"
         d="m 179.97466,155.90818 c 2.07379,0 4.05309,-1.20906 4.93071,-3.22916 v -7.1e-4 c 1.17755,-2.71447 -0.0723,-5.88134 -2.78605,-7.05962 -1.315,-0.57052 -2.77388,-0.59486 -4.10678,-0.0687 -1.33361,0.52615 -2.38231,1.53978 -2.95284,2.85549 -1.17827,2.71447 0.0716,5.88134 2.78605,7.05961 0.69365,0.30066 1.41665,0.44311 2.12891,0.44311 z m -2.39377,-6.40892 c 0.27846,-0.64139 0.78957,-1.13532 1.44027,-1.39231 0.31139,-0.12312 0.63638,-0.18397 0.96138,-0.18397 0.35362,0 0.70724,0.0723 1.04154,0.21762 1.32431,0.57482 1.9342,2.1196 1.35938,3.4439 -0.57482,1.32359 -2.1196,1.93349 -3.44319,1.35867 -1.3243,-0.57482 -1.9342,-2.1196 -1.35938,-3.44391 z m 0,0"
         inkscape:connector-curvature="0"
         style="stroke-width:0.12686107" />
      <path
         id="path1134"
         d="m 165.65714,183.54605 c -1.315,-0.57053 -2.77388,-0.59558 -4.10677,-0.0694 -1.33361,0.52614 -2.38232,1.54049 -2.95284,2.85549 -0.57124,1.315 -0.59558,2.77316 -0.0694,4.10677 0.52614,1.33361 1.54049,2.38232 2.85549,2.95284 0.69365,0.30137 1.41665,0.44382 2.12891,0.44382 2.07378,0 4.05308,-1.20905 4.9307,-3.22987 0.57053,-1.315 0.59487,-2.77316 0.0687,-4.10677 -0.52614,-1.33361 -1.53977,-2.38232 -2.85477,-2.95284 z m 0.26415,5.96509 c -0.57482,1.32359 -2.11889,1.93349 -3.44391,1.35867 -0.64139,-0.27847 -1.13532,-0.78957 -1.39231,-1.44027 -0.25698,-0.64998 -0.24481,-1.36153 0.0336,-2.00364 0.27846,-0.64139 0.79028,-1.13532 1.44027,-1.39231 0.31139,-0.12312 0.63638,-0.18397 0.96137,-0.18397 0.35434,0 0.70725,0.0723 1.04226,0.21762 0.6414,0.27846 1.13604,0.78957 1.39231,1.44027 0.25699,0.6507 0.24482,1.36224 -0.0336,2.00363 z m 0,0"
         inkscape:connector-curvature="0"
         style="stroke-width:0.12686107" />
      <path
         id="path1136"
         d="m 215.49894,163.72444 c 1.78745,-2.35798 1.32287,-5.73102 -1.03511,-7.51847 -2.35869,-1.78745 -5.73173,-1.32287 -7.51918,1.03582 -1.78745,2.35798 -1.32287,5.73101 1.03582,7.51847 0.9671,0.73302 2.10529,1.08736 3.23488,1.08736 1.62424,0 3.22916,-0.73231 4.28359,-2.12318 z m -2.19047,-1.66004 c -0.42235,0.55693 -1.03654,0.91699 -1.72947,1.0122 -0.69222,0.0952 -1.38086,-0.0845 -1.9385,-0.50753 -1.15035,-0.87189 -1.37656,-2.51689 -0.50466,-3.66725 0.51397,-0.67861 1.2971,-1.03582 2.08882,-1.03582 0.5512,0 1.10669,0.17323 1.57843,0.53044 1.15035,0.87261 1.37727,2.51761 0.50538,3.66796 z m 0,0"
         inkscape:connector-curvature="0"
         style="stroke-width:0.12686107" />
      <path
         id="path1138"
         d="m 231.08063,174.8579 -1.88409,-3.65079 c -0.83324,-1.61422 -1.98359,-2.99078 -3.41814,-4.09031 -0.60273,-0.46171 -1.46532,-0.34718 -1.92704,0.25556 -0.46171,0.60202 -0.3479,1.46532 0.25484,1.92632 1.11098,0.85114 2.00149,1.91774 2.64789,3.16974 l 1.88338,3.65007 c 0.26486,0.51326 0.62278,2.08954 -0.93059,2.9149 -1.55338,0.82537 -2.65004,-0.41733 -2.9149,-0.93059 l -1.88338,-3.65078 c -1.30426,-2.52692 -4.45038,-3.57706 -6.94937,-2.21839 -3.59567,1.95496 -2.85048,5.72672 -2.21911,6.95009 l 1.88409,3.65007 c 0.5469,1.06016 0.12957,2.368 -0.93059,2.9149 -1.06016,0.5469 -2.368,0.12956 -2.9149,-0.93059 l -1.88409,-3.65079 c -1.50828,-2.92349 -1.39088,-6.36883 0.26701,-9.17421 3.21841,0.39372 12.62169,-1.32358 12.62169,-11.50999 0,-6.37455 -5.18626,-11.56082 -11.56082,-11.56082 -1.6407,0 -3.20195,0.34576 -4.61717,0.96496 L 189.7695,144.6337 c -1.23053,-2.01867 -3.04017,-3.60712 -5.2421,-4.56277 -2.73236,-1.18614 -5.7847,-1.26918 -8.5958,-0.23408 -0.71227,0.262 -1.07734,1.05229 -0.81463,1.76455 0.262,0.71226 1.05157,1.07734 1.76455,0.81462 2.14465,-0.78957 4.47113,-0.72657 6.55136,0.1761 4.46184,1.93635 6.5163,7.14194 4.57923,11.60377 l -16.33833,37.64245 c -1.93706,4.46183 -7.14265,6.51629 -11.60377,4.57994 -4.46183,-1.93706 -6.51629,-7.14265 -4.57994,-11.60376 l 16.33905,-37.64245 c 0.34432,-0.79459 0.80174,-1.52904 1.35795,-2.18403 0.49178,-0.5784 0.42091,-1.44528 -0.15749,-1.93707 -0.57768,-0.49178 -1.44528,-0.42091 -1.93706,0.15749 -0.73159,0.86116 -1.33218,1.82611 -1.78459,2.86837 l -13.60025,31.33304 c -6.59217,3.06093 -10.81205,9.61444 -10.81205,16.8974 v 11.29739 c -3.95716,0.27703 -7.09254,3.58278 -7.09254,7.60866 0,4.207 3.42243,7.63014 7.63014,7.63014 h 36.17426 c 4.20699,0 7.62943,-3.42314 7.62943,-7.63014 0,-4.02588 -3.13538,-7.33163 -7.09183,-7.60866 v -11.29739 c 0,-4.00226 -1.31429,-7.92148 -3.71593,-11.12988 l 9.08759,-20.93546 13.88587,4.33298 c 1.37584,2.20908 3.47468,3.92281 5.96509,4.80615 -1.72159,3.46109 -1.72374,7.54352 0.0845,11.04685 l 1.88338,3.65078 c 0.87189,1.68867 3.49616,3.6336 6.61794,2.11244 1.1797,-0.57482 3.89703,-2.71733 2.11316,-6.61794 l -1.88409,-3.65078 c -0.29421,-0.57053 -0.59844,-2.30286 1.03653,-3.24634 1.15036,-0.66358 2.63787,-0.14388 3.24634,1.03654 l 1.88409,3.65078 c 1.24198,2.40666 4.21057,3.35443 6.61794,2.11245 1.16611,-0.60202 2.02798,-1.62138 2.4267,-2.87124 0.39944,-1.25057 0.28777,-2.5806 -0.31354,-3.7467 z m -51.68437,19.44937 v 11.27663 h -4.85268 c -0.75879,0 -1.37441,0.61491 -1.37441,1.37441 0,0.75879 0.61562,1.37442 1.37441,1.37442 h 7.06391 c 2.69084,0 4.8806,2.18904 4.8806,4.88131 0,2.69084 -2.18976,4.8806 -4.8806,4.8806 h -36.17426 c -2.69156,0 -4.88131,-2.18976 -4.88131,-4.88132 0,-2.69155 2.18975,-4.88059 4.88131,-4.88059 h 23.70862 c 0.75951,0 1.37442,-0.61563 1.37442,-1.37442 0,-0.7595 -0.61491,-1.37441 -1.37442,-1.37441 h -21.49811 v -11.27663 c 0,-4.99871 2.33507,-9.59512 6.18057,-12.5587 l -0.85543,1.97143 c -2.54052,5.85199 0.1539,12.67967 6.0059,15.22019 1.4961,0.64927 10.5572,4.06168 15.22019,-6.00662 l 2.93494,-6.76254 c 1.47034,2.45104 2.26635,5.26859 2.26635,8.13624 z m 9.22074,-34.60156 1.91702,-4.4153 c 1.01577,-2.34008 1.22051,-4.8985 0.6149,-7.34667 l 12.42842,3.87771 c -2.3995,2.12032 -3.91636,5.21632 -3.91636,8.66166 0,0.95636 0.11954,1.88481 0.33931,2.7746 z m 13.7928,0.7774 c 0,-4.85912 3.95287,-8.81199 8.812,-8.81199 4.85912,0 8.81199,3.95287 8.81199,8.81199 0,4.85912 -3.95287,8.81199 -8.81199,8.81199 -4.85913,0 -8.812,-3.95287 -8.812,-8.81199 z m 0,0"
         inkscape:connector-curvature="0"
         style="fill:#1a1a1a;stroke-width:0.12686107" />
    </g>
  </g>
</svg>
